<?xml version="1.0" encoding="UTF-8"?><svg id="LVGL" xmlns="http://www.w3.org/2000/svg" viewBox="0 0 84 26"><defs><style>.cls-1{fill:#62d367;}.cls-2{fill-rule:evenodd;}.cls-2,.cls-3{fill:#343839;}.cls-4{fill:#f35f20;}.cls-5{fill:#3c65f8;}</style></defs><path class="cls-3" d="M74.1,20.8V5.2h3.3v12.9h6.6v2.7h-9.9ZM68.3,10.2c0-.3-.2-.7-.4-1-.2-.3-.4-.5-.7-.7-.3-.2-.6-.4-.9-.5-.4-.1-.8-.2-1.2-.2-.8,0-1.5.2-2.1.6-.6.4-1.1,1-1.4,1.7-.3.7-.5,1.7-.5,2.8,0,1.6.2,2,.5,2.8s.8,1.3,1.4,1.7c.6.4,1.3.6,2.1.6s1.4-.1,1.9-.4.9-.6,1.2-1.1c.3-.5.4-1.1.4-1.7h.7-4v-2.5h6.5v2c0,1.4-.3,2.5-.9,3.5s-1.4,1.7-2.4,2.3c-1,.5-2.2.8-3.5.8-1.4,0-2.7-.3-3.8-1-1.1-.6-2-1.6-2.6-2.8-.6-1.2-.9-2.6-.9-4.3,0-1.3.2-2.4.5-3.4.4-1,.9-1.8,1.5-2.5s1.4-1.2,2.3-1.6c.9-.4,1.9-.5,2.8-.5s1.7.1,2.4.4c.7.2,1.4.6,2,1.1s1.1,1,1.4,1.7c.4.6.6,1.3.7,2.1h-3.3l.3.1ZM46.2,5.2l3.7,11.8h.1l3.7-11.8h3.6l-5.3,15.6h-4.2l-5.3-15.6h3.7ZM34,20.8V5.2h3.3v12.9h6.6v2.7h-9.9Z"/><path class="cls-2" d="M3,0C1.3,0,0,1.3,0,3v4c0,.6.4,1,1,1h6c1.1,0,2,.9,2,2v6c0,.6.4,1,1,1h6c1.1,0,2,.9,2,2v6c0,.6.4,1,1,1h4c1.7,0,3-1.3,3-3V3c0-1.7-1.3-3-3-3H3ZM22.5,5c.8,0,1.5-.7,1.5-1.5s-.7-1.5-1.5-1.5-1.5.7-1.5,1.5.7,1.5,1.5,1.5"/><rect class="cls-4" y="9" width="8" height="8" rx="1" ry="1"/><path class="cls-1" d="M0,19c0-.6.4-1,1-1h6c.6,0,1,.4,1,1v6c0,.6-.4,1-1,1H3c-1.7,0-3-1.3-3-3v-4Z"/><rect class="cls-5" x="9" y="18" width="8" height="8" rx="1" ry="1"/></svg>