<?xml version="1.0" encoding="UTF-8"?> <svg xmlns="http://www.w3.org/2000/svg" xmlns:xlink="http://www.w3.org/1999/xlink" viewBox="0 0 450 310"><defs><style>.cls-1{fill:#7929d2;}.cls-2{fill:#9454db;}.cls-3{fill:#af7fe4;}.cls-4{fill:url(#linear-gradient);}.cls-5{fill:url(#linear-gradient-2);}.cls-6{fill:url(#linear-gradient-3);}.cls-7{fill:url(#linear-gradient-4);}.cls-8{fill:#2d3136;}</style><linearGradient id="linear-gradient" x1="179.39416" y1="84.31873" x2="273.29939" y2="84.31873" gradientUnits="userSpaceOnUse"><stop offset="0" stop-color="#7929d2"></stop><stop offset="1" stop-color="#0070c5"></stop></linearGradient><linearGradient id="linear-gradient-2" x1="185.78541" y1="1.59134" x2="184.9989" y2="94.41749" gradientUnits="userSpaceOnUse"><stop offset="0" stop-color="#00aeff"></stop><stop offset="1" stop-color="#9454db"></stop></linearGradient><linearGradient id="linear-gradient-3" x1="237.47368" y1="40.08204" x2="217.42537" y2="5.35735" gradientUnits="userSpaceOnUse"><stop offset="0" stop-color="#66a9dc"></stop><stop offset="1" stop-color="#b1e4fa"></stop></linearGradient><linearGradient id="linear-gradient-4" x1="241.93321" y1="12.87383" x2="253.32397" y2="91.65995" xlink:href="#linear-gradient-2"></linearGradient></defs><g id="Colored_Positive" data-name="Colored Positive"><polygon class="cls-1" points="144.253 121.883 113.231 134.981 139.607 148.302 144.253 121.883"></polygon><polygon class="cls-2" points="77.275 139.241 44.185 126.853 51.857 152.868 77.275 139.241"></polygon><polygon class="cls-3" points="92.966 115.957 113.231 134.981 77.275 139.241 92.966 115.957"></polygon><polygon class="cls-3" points="48.18 98.08 44.185 126.853 19.173 101.888 48.18 98.08"></polygon><polygon class="cls-4" points="144.253 121.883 225.916 46.755 262.627 95.4 144.253 121.883"></polygon><polygon class="cls-5" points="144.253 121.883 179.134 11.342 225.916 46.755 144.253 121.883"></polygon><polygon class="cls-6" points="179.134 11.342 262.627 11.342 225.916 46.755 179.134 11.342"></polygon><polygon class="cls-7" points="262.627 95.4 262.627 11.342 225.916 46.755 262.627 95.4"></polygon><path class="cls-8" d="M178.746,204.22781v-8.832l23.56445-32.95312H179.8593v-9.57422h34.957v8.42382l-23.78711,33.36133h24.418v9.57422Z"></path><path class="cls-8" d="M230.02336,187.26883q.25928,5.19579,2.52344,7.459,2.26318,2.26392,7.125,2.26367a15.79835,15.79835,0,0,0,4.9541-.70507,7.93667,7.93667,0,0,0,3.72949-2.709l7.125,5.084a14.41487,14.41487,0,0,1-6.06738,5.04687q-3.7295,1.66992-10.18652,1.66992-9.61232,0-14.34278-5.04687-4.73144-5.04639-4.73144-15.252,0-20.89233,18.70312-20.89257,8.31153,0,12.67285,4.69433,4.35938,4.69482,4.36036,13.67481v4.71289Zm16.36524-6.60547q0-8.8689-7.75586-8.86914a8.867,8.867,0,0,0-4.19336.87207,6.51957,6.51957,0,0,0-2.61621,2.59765,16.38407,16.38407,0,0,0-1.54,5.39942Z"></path><path class="cls-8" d="M298.96574,184.48562a29.93368,29.93368,0,0,1-1.89257,11.0586,15.86935,15.86935,0,0,1-5.418,7.31054,14.09156,14.09156,0,0,1-8.42383,2.52344,16.04094,16.04094,0,0,1-11.02149-4.04492V218.886h-9.57421V165.30008h8.832v3.82226a22.98277,22.98277,0,0,1,5.62207-3.61816,16.46071,16.46071,0,0,1,6.77246-1.31738q7.38427,0,11.24414,5.19531Q298.96476,174.57792,298.96574,184.48562Zm-9.87109.14844q0-5.67773-1.9668-8.85058a6.45467,6.45467,0,0,0-5.86328-3.17286,11.81246,11.81246,0,0,0-4.80566,1.09473,16.08792,16.08792,0,0,0-4.249,2.69043V193.429a15.30717,15.30717,0,0,0,3.76661,2.43067,10.72372,10.72372,0,0,0,4.62011,1.05761,7.14026,7.14026,0,0,0,6.21582-3.35839A15.621,15.621,0,0,0,289.09465,184.63406Z"></path><path class="cls-8" d="M330.98332,204.22781V182.77859q0-6.15966-1.15039-8.16406a4.3045,4.3045,0,0,0-4.082-2.00391q-4.26855,0-10.2793,5.64063v25.97656h-9.57422V148.972h9.57422v21.375a22.04644,22.04644,0,0,1,6.49414-4.60156,16.33773,16.33773,0,0,1,6.75391-1.55859q6.53028,0,9.18457,3.67382,2.65284,3.67383,2.65332,10.39063v25.97656Z"></path><path class="cls-8" d="M345.07805,209.46023a17.38648,17.38648,0,0,0,5.60351,1.07618,5.9076,5.9076,0,0,0,3.78516-1.29883q1.63184-1.29932,3.37695-5.38086l1.002-2.30078-14.06446-36.25586h9.94532l9.20312,24.86328,9.42578-24.86328h9.72266l-16.73633,41.59961a31.006,31.006,0,0,1-3.9707,7.42187,11.36245,11.36245,0,0,1-4.50879,3.48828,16.9072,16.9072,0,0,1-6.47559,1.07617,31.86625,31.86625,0,0,1-8.34961-1.11328Z"></path><path class="cls-8" d="M411.0136,174.65164a8.85142,8.85142,0,0,0-3.9336-.74219,10.58689,10.58689,0,0,0-5.06543,1.28028,22.32467,22.32467,0,0,0-4.917,3.72949v25.30859h-9.57422V165.30008h9.57422v5.5664a24.993,24.993,0,0,1,5.26953-4.416,11.75128,11.75128,0,0,1,6.30859-1.74414,8.47317,8.47317,0,0,1,4.23047.77929Z"></path><path class="cls-8" d="M210.01609,240.25536a25.57744,25.57744,0,0,1-1.07617,7.94141,12.45025,12.45025,0,0,1-3.28418,5.32519,13.12043,13.12043,0,0,1-5.54785,2.98731,29.58179,29.58179,0,0,1-7.86719.92773h-8.57227v18.14649h-5.00976V224.22411h14.21289q8.83154,0,12.98828,3.98926Q210.01561,232.20288,210.01609,240.25536Zm-5.38086.14844a16.154,16.154,0,0,0-.835-5.585,8.42712,8.42712,0,0,0-2.41211-3.58106,9.44637,9.44637,0,0,0-3.84082-1.91113,21.02159,21.02159,0,0,0-5.1582-.5752h-8.72071v24.1211h7.75586a27.5226,27.5226,0,0,0,5.9375-.55664,9.25559,9.25559,0,0,0,4.10059-1.94824,8.21538,8.21538,0,0,0,2.39355-3.80372A20.40788,20.40788,0,0,0,204.63523,240.4038Z"></path><path class="cls-8" d="M238.76853,241.36864a7.52967,7.52967,0,0,0-2.82031-.51953,11.1396,11.1396,0,0,0-3.24707.44531,11.80615,11.80615,0,0,0-2.876,1.33594,21.57665,21.57665,0,0,0-2.876,2.208q-1.46629,1.31763-3.24707,3.09863v27.64649H218.915V236.65575h4.7871v6.7168q1.66994-1.66992,3.17286-3.02442a22.13205,22.13205,0,0,1,3.00586-2.30078,14.29449,14.29449,0,0,1,3.043-1.46582,10.09193,10.09193,0,0,1,3.24707-.51953,9.67325,9.67325,0,0,1,1.9668.18555,6.40452,6.40452,0,0,1,1.66992.59375Z"></path><path class="cls-8" d="M276.09324,256.21239a36.58326,36.58326,0,0,1-.89063,8.40528,17.89651,17.89651,0,0,1-2.85742,6.47558,13.00756,13.00756,0,0,1-5.084,4.17481,20.0904,20.0904,0,0,1-15.06641,0,13.00408,13.00408,0,0,1-5.084-4.17481,18.12,18.12,0,0,1-2.876-6.47558,35.85,35.85,0,0,1-.90918-8.40528,36.54035,36.54035,0,0,1,.89062-8.33105,18.26606,18.26606,0,0,1,2.85743-6.54981,13.344,13.344,0,0,1,5.084-4.26758,19.60528,19.60528,0,0,1,15.01074-.05566,13.19553,13.19553,0,0,1,5.084,4.17481,18.17865,18.17865,0,0,1,2.91308,6.51269A36.02081,36.02081,0,0,1,276.09324,256.21239Zm-5.00977,0a37.32279,37.32279,0,0,0-.59375-7.01367,14.96924,14.96924,0,0,0-1.92969-5.19531,8.749,8.749,0,0,0-3.50683-3.21,11.74444,11.74444,0,0,0-5.3252-1.09473,11.6194,11.6194,0,0,0-5.38086,1.13184,9.0769,9.0769,0,0,0-3.54394,3.26562,14.90559,14.90559,0,0,0-1.94824,5.19531,36.53214,36.53214,0,0,0-.59375,6.9209,35.17653,35.17653,0,0,0,.6123,6.90235,14.957,14.957,0,0,0,1.9668,5.1582,8.97851,8.97851,0,0,0,3.54394,3.22851,11.68967,11.68967,0,0,0,5.34375,1.11329,11.55472,11.55472,0,0,0,5.251-1.09473,8.877,8.877,0,0,0,3.52539-3.21,14.967,14.967,0,0,0,1.9668-5.1582A35.39482,35.39482,0,0,0,271.08347,256.21239Z"></path><path class="cls-8" d="M290.92918,277.6245a26.96885,26.96885,0,0,1-.501,5.54785,9.70943,9.70943,0,0,1-1.707,3.9336,7.22509,7.22509,0,0,1-3.24707,2.35644,14.48416,14.48416,0,0,1-5.1211.7793,19.89712,19.89712,0,0,1-3.1914-.27832,22.89347,22.89347,0,0,1-3.41407-.835l1.1875-3.97071a16.54128,16.54128,0,0,0,2.709.79786,14.74564,14.74564,0,0,0,2.93164.27832,6.128,6.128,0,0,0,2.67187-.51953,3.88142,3.88142,0,0,0,1.707-1.63282,8.51893,8.51893,0,0,0,.90918-2.83886,26.43112,26.43112,0,0,0,.27832-4.1377V236.65575h4.78711Zm1.03906-50.46875a3.26549,3.26549,0,0,1-.81641,2.5791,4.00322,4.00322,0,0,1-2.59765.68653,3.4135,3.4135,0,0,1-2.69043-.85352,3.62317,3.62317,0,0,1-.72364-2.41211,3.22907,3.22907,0,0,1,.79785-2.43066,3.71564,3.71564,0,0,1,2.61622-.76074,3.76036,3.76036,0,0,1,2.65332.74218A3.3213,3.3213,0,0,1,291.96824,227.15575Z"></path><path class="cls-8" d="M305.65427,256.13817a44.00631,44.00631,0,0,0,.53809,7.38477,14.01186,14.01186,0,0,0,1.81836,5.13965,7.76489,7.76489,0,0,0,3.39551,2.9873,12.68886,12.68886,0,0,0,5.27.96485,13.66263,13.66263,0,0,0,2.85742-.27832,8.3709,8.3709,0,0,0,2.42968-.92774,10.7481,10.7481,0,0,0,2.17188-1.66992,16.27965,16.27965,0,0,0,2.041-2.50488l3.82226,2.48632a18.17861,18.17861,0,0,1-2.2832,2.96875,11.83366,11.83366,0,0,1-2.85742,2.18946,14.34461,14.34461,0,0,1-3.67383,1.373,20.87028,20.87028,0,0,1-4.73047.48243,19.06209,19.06209,0,0,1-6.7915-1.11328,11.52277,11.52277,0,0,1-4.917-3.544,16.46014,16.46014,0,0,1-3.00586-6.29,37.0259,37.0259,0,0,1-1.0205-9.35156,41.18047,41.18047,0,0,1,.85351-8.81348,18.22294,18.22294,0,0,1,2.72754-6.56836,12.134,12.134,0,0,1,4.86133-4.10058,16.99831,16.99831,0,0,1,7.29248-1.41016,16.1145,16.1145,0,0,1,6.49414,1.1875,11.1211,11.1211,0,0,1,4.43359,3.43262,14.84148,14.84148,0,0,1,2.543,5.49219,30.36013,30.36013,0,0,1,.81641,7.36621v3.11718Zm20.37354-3.89648q-.11133-6.56837-2.44922-9.62988t-7.27344-3.06153a12.02347,12.02347,0,0,0-4.43506.74219,7.678,7.678,0,0,0-3.15429,2.30078,11.30717,11.30717,0,0,0-2.00391,3.95215,27.23111,27.23111,0,0,0-.9834,5.69629Z"></path><path class="cls-8" d="M367.397,269.34911a15.82348,15.82348,0,0,1-2.15235,3.11719,11.58641,11.58641,0,0,1-2.85742,2.31933,13.8519,13.8519,0,0,1-3.69238,1.44727,19.58472,19.58472,0,0,1-4.62012.501,16.9465,16.9465,0,0,1-7.66308-1.5586,13.28743,13.28743,0,0,1-5.00977-4.28613,17.94865,17.94865,0,0,1-2.74609-6.47559,40.51323,40.51323,0,0,1,.07422-16.71777,18.1159,18.1159,0,0,1,2.85742-6.53125,13.02486,13.02486,0,0,1,5.00976-4.15625,17.03074,17.03074,0,0,1,7.40332-1.46582,15.00617,15.00617,0,0,1,7.7002,1.81836,14.44761,14.44761,0,0,1,5.21387,5.60352l-3.9336,2.375a14.68684,14.68684,0,0,0-1.66992-2.50489,8.50783,8.50783,0,0,0-1.98535-1.74414,8.76365,8.76365,0,0,0-2.43066-1.03906,11.96627,11.96627,0,0,0-3.043-.35254q-5.82716,0-8.46094,4.23047-2.63526,4.23047-2.63477,12.50586a34.81127,34.81127,0,0,0,.5752,6.60547,15.07321,15.07321,0,0,0,1.89258,5.10254,9.118,9.118,0,0,0,3.48828,3.30273,11.19709,11.19709,0,0,0,5.3623,1.16895,11.94584,11.94584,0,0,0,3.21-.38965,8.70961,8.70961,0,0,0,2.50489-1.13184,9.50294,9.50294,0,0,0,2.0039-1.7998,21.0611,21.0611,0,0,0,1.707-2.35645Z"></path><path class="cls-8" d="M393.99656,275.50927a23.74247,23.74247,0,0,1-3.30274.87207,19.4707,19.4707,0,0,1-3.71093.35254,14.1792,14.1792,0,0,1-4.86133-.72364,6.82227,6.82227,0,0,1-3.1543-2.28222,9.91485,9.91485,0,0,1-1.707-4.00782,28.842,28.842,0,0,1-.51953-5.90039V240.77489h-5.86328v-4.11914h5.86328V225.81981h4.78711v10.83594H391.77v4.11914H381.52781v22.48828a32.75574,32.75574,0,0,0,.25976,4.52735,7.729,7.729,0,0,0,.90918,2.89453,3.66623,3.66623,0,0,0,1.7627,1.54,7.49248,7.49248,0,0,0,2.85742.46386,14.22258,14.22258,0,0,0,2.83887-.31542,17.15949,17.15949,0,0,0,2.61621-.72364Z"></path><path class="cls-8" d="M424.88849,164.40732h-.904v2.07682h-1.234V160.6884h2.71145a1.8049,1.8049,0,0,1,1.94644,1.86828,1.66317,1.66317,0,0,1-1.26926,1.72025l1.30385,2.20721h-1.4166Zm.39081-2.65889h-1.29486v1.59886h1.29486a.8022.8022,0,1,0,0-1.59886Z"></path><path class="cls-8" d="M425.0963,169.88a6.29376,6.29376,0,1,1,6.29434-6.29395A6.30082,6.30082,0,0,1,425.0963,169.88Zm0-11.7913a5.49754,5.49754,0,1,0,5.49812,5.49735A5.50374,5.50374,0,0,0,425.0963,158.08873Z"></path></g></svg> 