<?xml version="1.0" encoding="UTF-8"?> <svg xmlns="http://www.w3.org/2000/svg" xmlns:xlink="http://www.w3.org/1999/xlink" viewBox="0 0 670 228"><defs><style>.cls-1{fill:#7929d2;}.cls-2{fill:#9454db;}.cls-3{fill:#af7fe4;}.cls-4{fill:url(#linear-gradient);}.cls-5{fill:url(#linear-gradient-2);}.cls-6{fill:url(#linear-gradient-3);}.cls-7{fill:url(#linear-gradient-4);}.cls-8{fill:#2d3136;}</style><linearGradient id="linear-gradient" x1="175.73553" y1="84.38559" x2="269.64076" y2="84.38559" gradientUnits="userSpaceOnUse"><stop offset="0" stop-color="#7929d2"></stop><stop offset="1" stop-color="#0070c5"></stop></linearGradient><linearGradient id="linear-gradient-2" x1="182.12678" y1="1.65821" x2="181.34028" y2="94.48435" gradientUnits="userSpaceOnUse"><stop offset="0" stop-color="#00aeff"></stop><stop offset="1" stop-color="#9454db"></stop></linearGradient><linearGradient id="linear-gradient-3" x1="233.81506" y1="40.14891" x2="213.76674" y2="5.42421" gradientUnits="userSpaceOnUse"><stop offset="0" stop-color="#66a9dc"></stop><stop offset="1" stop-color="#b1e4fa"></stop></linearGradient><linearGradient id="linear-gradient-4" x1="238.27458" y1="12.9407" x2="249.66534" y2="91.72681" xlink:href="#linear-gradient-2"></linearGradient></defs><g id="Colored_Positive" data-name="Colored Positive"><polygon class="cls-1" points="140.594 121.949 109.573 135.048 135.948 148.369 140.594 121.949"></polygon><polygon class="cls-2" points="73.616 139.307 40.527 126.92 48.198 152.935 73.616 139.307"></polygon><polygon class="cls-3" points="89.307 116.023 109.573 135.048 73.616 139.307 89.307 116.023"></polygon><polygon class="cls-3" points="44.521 98.147 40.527 126.92 15.514 101.955 44.521 98.147"></polygon><polygon class="cls-4" points="140.594 121.949 222.257 46.822 258.969 95.466 140.594 121.949"></polygon><polygon class="cls-5" points="140.594 121.949 175.475 11.409 222.257 46.822 140.594 121.949"></polygon><polygon class="cls-6" points="175.475 11.409 258.969 11.409 222.257 46.822 175.475 11.409"></polygon><polygon class="cls-7" points="258.969 95.466 258.969 11.409 222.257 46.822 258.969 95.466"></polygon><path class="cls-8" d="M175.07713,204.14644v-8.832l23.56445-32.95312H176.19041v-9.57422h34.957v8.42383l-23.78711,33.36132h24.418v9.57422Z"></path><path class="cls-8" d="M226.355,187.18746q.25927,5.19581,2.52344,7.459,2.26319,2.26392,7.125,2.26367a15.79835,15.79835,0,0,0,4.9541-.70507,7.932,7.932,0,0,0,3.72949-2.709l7.125,5.084a14.41487,14.41487,0,0,1-6.06738,5.04687q-3.72949,1.66992-10.18653,1.66992-9.61156,0-14.34277-5.04687-4.73145-5.04639-4.73144-15.25195,0-20.89234,18.70312-20.89258,8.31225,0,12.67285,4.69433,4.36011,4.69484,4.36035,13.67481v4.71289Zm16.36523-6.60547q0-8.8689-7.75586-8.86914a8.86835,8.86835,0,0,0-4.19335.87207,6.51962,6.51962,0,0,0-2.61622,2.59766,16.396,16.396,0,0,0-1.54,5.39941Z"></path><path class="cls-8" d="M295.29685,184.40426a29.93366,29.93366,0,0,1-1.89257,11.05859,15.866,15.866,0,0,1-5.418,7.31055,14.09162,14.09162,0,0,1-8.42383,2.52343,16.04094,16.04094,0,0,1-11.02149-4.04492v17.55274h-9.57421V165.21871h8.832V169.041a22.98277,22.98277,0,0,1,5.62207-3.61816,16.46233,16.46233,0,0,1,6.77246-1.31738q7.38428,0,11.24414,5.19531Q295.29661,174.49655,295.29685,184.40426Zm-9.87109.14843q0-5.67773-1.9668-8.85058a6.45466,6.45466,0,0,0-5.86328-3.17285A11.8142,11.8142,0,0,0,272.79,173.624a16.08792,16.08792,0,0,0-4.249,2.69043v17.0332a15.31644,15.31644,0,0,0,3.76661,2.43067,10.72693,10.72693,0,0,0,4.62011,1.05762,7.14025,7.14025,0,0,0,6.21582-3.3584A15.621,15.621,0,0,0,285.42576,184.55269Z"></path><path class="cls-8" d="M327.31394,204.14644V182.69722q0-6.15966-1.15039-8.16406a4.30448,4.30448,0,0,0-4.082-2.0039q-4.26855,0-10.27881,5.64062v25.97656h-9.57422V148.89058h9.57422v21.375a22.04443,22.04443,0,0,1,6.49366-4.60156,16.33765,16.33765,0,0,1,6.7539-1.55859q6.53028,0,9.18457,3.67383,2.65284,3.67381,2.65332,10.39062v25.97656Z"></path><path class="cls-8" d="M341.40867,209.37886a17.38653,17.38653,0,0,0,5.60352,1.07618,5.90755,5.90755,0,0,0,3.78515-1.29883q1.63183-1.29931,3.377-5.38086l1.00195-2.30078L341.1118,165.21871h9.94531l9.20312,24.86328,9.42578-24.86328h9.72266l-16.73633,41.59961a31.006,31.006,0,0,1-3.9707,7.42187,11.36245,11.36245,0,0,1-4.50879,3.48828,16.90718,16.90718,0,0,1-6.47559,1.07618,31.86613,31.86613,0,0,1-8.3496-1.11329Z"></path><path class="cls-8" d="M407.34422,174.57027a8.85139,8.85139,0,0,0-3.9336-.74219,10.58689,10.58689,0,0,0-5.06543,1.28028,22.32467,22.32467,0,0,0-4.917,3.72949v25.30859H383.854V165.21871h9.57422v5.5664a24.993,24.993,0,0,1,5.26953-4.416,11.75134,11.75134,0,0,1,6.3086-1.74414,8.4731,8.4731,0,0,1,4.23047.7793Z"></path><path class="cls-8" d="M471.93705,168.81832a25.59167,25.59167,0,0,1-1.07617,7.9414,12.45019,12.45019,0,0,1-3.28418,5.3252,13.12325,13.12325,0,0,1-5.54785,2.9873A29.58391,29.58391,0,0,1,454.16166,186h-8.57227v18.14648h-5.00976V152.78707h14.21289q8.83153,0,12.98828,3.98926Q471.93657,160.76582,471.93705,168.81832Zm-5.38086.14844a16.154,16.154,0,0,0-.835-5.585,8.43142,8.43142,0,0,0-2.41211-3.58105,9.44624,9.44624,0,0,0-3.84082-1.91113,21.0244,21.0244,0,0,0-5.1582-.5752h-8.72071v24.1211h7.75586a27.52508,27.52508,0,0,0,5.9375-.55665,9.25537,9.25537,0,0,0,4.10059-1.94824,8.21529,8.21529,0,0,0,2.39355-3.80371A20.40756,20.40756,0,0,0,466.55619,168.96676Z"></path><path class="cls-8" d="M500.69,169.9316a7.5315,7.5315,0,0,0-2.82031-.51953,11.13723,11.13723,0,0,0-3.24707.44531,11.79773,11.79773,0,0,0-2.876,1.33594,21.54525,21.54525,0,0,0-2.876,2.208q-1.4663,1.31762-3.24707,3.09863v27.64648h-4.78711V165.21871h4.78711v6.7168q1.66994-1.66994,3.17286-3.02442a22.13261,22.13261,0,0,1,3.00585-2.30078,14.28354,14.28354,0,0,1,3.043-1.46582,10.08975,10.08975,0,0,1,3.24707-.51953,9.67669,9.67669,0,0,1,1.9668.18555,6.40416,6.40416,0,0,1,1.66992.59375Z"></path><path class="cls-8" d="M538.0142,184.77535a36.58317,36.58317,0,0,1-.89063,8.40527,17.905,17.905,0,0,1-2.85742,6.47559,13.00754,13.00754,0,0,1-5.084,4.1748,20.0904,20.0904,0,0,1-15.06641,0,13.00058,13.00058,0,0,1-5.084-4.1748,18.11164,18.11164,0,0,1-2.876-6.47559,35.85047,35.85047,0,0,1-.90918-8.40527,36.54042,36.54042,0,0,1,.89063-8.33106,18.266,18.266,0,0,1,2.85742-6.5498,13.34024,13.34024,0,0,1,5.084-4.26758,19.60528,19.60528,0,0,1,15.01074-.05566,13.19918,13.19918,0,0,1,5.084,4.1748,18.18707,18.18707,0,0,1,2.91308,6.5127A36.02081,36.02081,0,0,1,538.0142,184.77535Zm-5.00977,0a37.32279,37.32279,0,0,0-.59375-7.01367,14.97928,14.97928,0,0,0-1.92968-5.19532,8.74913,8.74913,0,0,0-3.50684-3.21,11.74457,11.74457,0,0,0-5.3252-1.09472,11.61806,11.61806,0,0,0-5.38085,1.13183,9.07355,9.07355,0,0,0-3.54395,3.26563,14.90571,14.90571,0,0,0-1.94824,5.19531,36.49185,36.49185,0,0,0-.59375,6.9209,35.17642,35.17642,0,0,0,.6123,6.90234,14.95719,14.95719,0,0,0,1.9668,5.15821,8.97538,8.97538,0,0,0,3.54394,3.22851,11.68683,11.68683,0,0,0,5.34375,1.11328,11.55613,11.55613,0,0,0,5.251-1.09472,8.87708,8.87708,0,0,0,3.52539-3.21,14.97644,14.97644,0,0,0,1.9668-5.15821A35.39471,35.39471,0,0,0,533.00443,184.77535Z"></path><path class="cls-8" d="M552.85014,206.18746a26.96885,26.96885,0,0,1-.501,5.54785,9.70919,9.70919,0,0,1-1.707,3.93359,7.22777,7.22777,0,0,1-3.24707,2.35645,14.48791,14.48791,0,0,1-5.1211.7793,19.89827,19.89827,0,0,1-3.1914-.27832,22.90658,22.90658,0,0,1-3.41406-.835l1.1875-3.9707a16.54084,16.54084,0,0,0,2.709.79785,14.74846,14.74846,0,0,0,2.93164.27832,6.12811,6.12811,0,0,0,2.67188-.51953,3.884,3.884,0,0,0,1.707-1.63281,8.53028,8.53028,0,0,0,.90918-2.83887,26.431,26.431,0,0,0,.27832-4.13769V165.21871h4.78711Zm1.03906-50.46875a3.26549,3.26549,0,0,1-.81641,2.5791,4.00414,4.00414,0,0,1-2.59765.68652,3.41354,3.41354,0,0,1-2.69043-.85351,3.62317,3.62317,0,0,1-.72364-2.41211,3.22907,3.22907,0,0,1,.79786-2.43067,3.714,3.714,0,0,1,2.61621-.76074,3.76116,3.76116,0,0,1,2.65332.74219A3.32128,3.32128,0,0,1,553.8892,155.71871Z"></path><path class="cls-8" d="M567.57572,184.70113a43.9546,43.9546,0,0,0,.53809,7.38477,14.01173,14.01173,0,0,0,1.81836,5.13964,7.76491,7.76491,0,0,0,3.39551,2.98731,12.68661,12.68661,0,0,0,5.26953.96484,13.65528,13.65528,0,0,0,2.85742-.27832,8.38751,8.38751,0,0,0,2.43066-.92773,10.743,10.743,0,0,0,2.1709-1.66992,16.22272,16.22272,0,0,0,2.041-2.50489l3.82226,2.48633a18.17491,18.17491,0,0,1-2.28222,2.96875,11.85278,11.85278,0,0,1-2.85743,2.18945,14.34477,14.34477,0,0,1-3.67382,1.37305,20.87932,20.87932,0,0,1-4.73145.48242,19.063,19.063,0,0,1-6.791-1.11328,11.51986,11.51986,0,0,1-4.917-3.54394,16.4459,16.4459,0,0,1-3.00586-6.29,37.026,37.026,0,0,1-1.0205-9.35156,41.18047,41.18047,0,0,1,.85351-8.81348,18.2056,18.2056,0,0,1,2.72754-6.56836,12.13067,12.13067,0,0,1,4.86133-4.10059,16.999,16.999,0,0,1,7.292-1.41015,16.11433,16.11433,0,0,1,6.49414,1.1875,11.11744,11.11744,0,0,1,4.43457,3.43261,14.84044,14.84044,0,0,1,2.542,5.49219,30.31174,30.31174,0,0,1,.81641,7.36621v3.11719Zm20.373-3.89648q-.11133-6.56837-2.44922-9.62989t-7.27344-3.06152a12.02076,12.02076,0,0,0-4.43457.74219,7.67475,7.67475,0,0,0-3.15429,2.30078,11.30709,11.30709,0,0,0-2.00391,3.95215,27.23111,27.23111,0,0,0-.9834,5.69629Z"></path><path class="cls-8" d="M629.31791,197.91207a15.82417,15.82417,0,0,1-2.15234,3.11719,11.5871,11.5871,0,0,1-2.85743,2.31933,13.85223,13.85223,0,0,1-3.69238,1.44727,19.58468,19.58468,0,0,1-4.62012.501,16.94666,16.94666,0,0,1-7.66308-1.55859,13.28743,13.28743,0,0,1-5.00977-4.28613,17.94872,17.94872,0,0,1-2.74609-6.47559,40.51323,40.51323,0,0,1,.07422-16.71777,18.11582,18.11582,0,0,1,2.85742-6.53125,13.02482,13.02482,0,0,1,5.00977-4.15625,17.03067,17.03067,0,0,1,7.40332-1.46582,15.00606,15.00606,0,0,1,7.70019,1.81836,14.44758,14.44758,0,0,1,5.21387,5.60351l-3.9336,2.375a14.68713,14.68713,0,0,0-1.66992-2.50488,8.50783,8.50783,0,0,0-1.98535-1.74414,8.76365,8.76365,0,0,0-2.43066-1.03906,11.96582,11.96582,0,0,0-3.043-.35254q-5.82716,0-8.46094,4.23047-2.63526,4.23046-2.63477,12.50586a34.81109,34.81109,0,0,0,.5752,6.60546,15.07305,15.07305,0,0,0,1.89258,5.10254,9.11806,9.11806,0,0,0,3.48828,3.30274,11.19724,11.19724,0,0,0,5.3623,1.16894,11.94557,11.94557,0,0,0,3.21-.38965,8.70939,8.70939,0,0,0,2.50488-1.13183,9.50274,9.50274,0,0,0,2.0039-1.79981,21.06134,21.06134,0,0,0,1.707-2.35644Z"></path><path class="cls-8" d="M655.9185,204.07222a23.74108,23.74108,0,0,1-3.30274.87207,19.46992,19.46992,0,0,1-3.71094.35254,14.17944,14.17944,0,0,1-4.86132-.72363,6.82217,6.82217,0,0,1-3.1543-2.28223,9.9148,9.9148,0,0,1-1.707-4.00781,28.842,28.842,0,0,1-.51953-5.90039V169.33785h-5.86328v-4.11914h5.86328V154.38277h4.78711v10.83594h10.24218v4.11914H643.44975v22.48828a32.754,32.754,0,0,0,.25976,4.52734,7.72877,7.72877,0,0,0,.90918,2.89454,3.66621,3.66621,0,0,0,1.7627,1.54,7.49243,7.49243,0,0,0,2.85742.46387,14.22191,14.22191,0,0,0,2.83887-.31543,17.15875,17.15875,0,0,0,2.61621-.72363Z"></path><path class="cls-8" d="M421.369,161.99579h-1.11371v2.55848h-1.52017V157.4144h3.34029a2.22349,2.22349,0,0,1,2.39785,2.30156,2.04891,2.04891,0,0,1-1.56363,2.11921l1.60623,2.7191h-1.74513Zm.48145-3.27553h-1.59516v1.96967h1.59516a.98824.98824,0,1,0,0-1.96967Z"></path><path class="cls-8" d="M421.625,168.73773a7.7534,7.7534,0,1,1,7.75411-7.75364A7.76209,7.76209,0,0,1,421.625,168.73773Zm0-14.52591a6.77252,6.77252,0,1,0,6.77323,6.77227A6.78014,6.78014,0,0,0,421.625,154.21182Z"></path></g></svg> 